<?xml version="1.0" encoding="UTF-8" standalone="no"?><!DOCTYPE svg PUBLIC "-//W3C//DTD SVG 1.1//EN" "http://www.w3.org/Graphics/SVG/1.1/DTD/svg11.dtd"><svg width="100%" height="100%" viewBox="0 0 4258 2901" version="1.1" xmlns="http://www.w3.org/2000/svg" xmlns:xlink="http://www.w3.org/1999/xlink" xml:space="preserve" xmlns:serif="http://www.serif.com/" style="fill-rule:evenodd;clip-rule:evenodd;stroke-linejoin:round;stroke-miterlimit:2;"><g id="Mom"><path d="M2779.344,2297.756c-7,38.5 -18.041,127.458 40.667,308.125c22.542,69.458 59.709,165.792 121.958,274.333c43.459,-53.042 105.584,-142.208 146.334,-266.792c35.166,-107.458 41.542,-201.875 40.792,-266.083c-109.834,-142.833 -225.334,-214.25 -288.167,-183.125c-40.958,20.292 -51.917,80.458 -61.583,133.542Z" style="fill:url(#_Radial1);"/><path d="M2779.344,2297.756l-20.416,-3.75l20.416,3.75Zm85.75,-119.375c-5.542,0.75 -10.542,2.208 -14.958,4.417c-31.625,15.667 -41.584,70.375 -50.375,118.625l0,0.042c-5.083,27.708 -20.458,112.125 39.917,298.042c27.042,83.25 62.375,165.042 105.208,243.5c54.249,-71.5 95.792,-150.75 123.666,-236.042c26.708,-81.542 40.083,-166.458 39.834,-252.5c-99.751,-127.833 -193,-182.708 -243.292,-176.083Zm79.542,722.417c-1.417,0.167 -2.916,0.208 -4.417,0.083c-6.791,-0.542 -12.875,-4.417 -16.25,-10.333c-51.083,-89.083 -92.708,-182.708 -123.709,-278.25c-63.625,-195.833 -46.833,-288 -41.333,-318.292l20.416,3.75l-20.375,-3.792c10.5,-57.833 22.458,-123.417 72.75,-148.333c74.083,-36.667 197.25,37.5 313.792,189.042c2.75,3.583 4.25,7.917 4.333,12.417c1.042,92.958 -13.042,184.75 -41.833,272.75c-32.709,99.917 -83.167,191.917 -150.042,273.542c-3.375,4.083 -8.125,6.708 -13.333,7.417Z" style="fill-rule:nonzero;"/><path d="M3814.136,1860.965c45.167,2.292 105.042,0.333 172.75,-16.167c120.958,-29.5 205.208,-90.292 250.334,-128.708c-40.25,-35.667 -116.458,-93.5 -227.708,-125.083c-151.876,-43.125 -279.667,-12 -332.75,4.25c45.792,88.583 91.583,177.167 137.375,265.708Z" style="fill:url(#_Radial2);"/><path d="M3826.97,1840.756c52.416,1.583 104.499,-3.792 155,-16.125c79.916,-19.5 156.5,-56.958 222.833,-108.875c-59.375,-48.167 -128.375,-84.208 -200.958,-104.833c-118.251,-33.542 -223.334,-21.708 -297,-2.625l120.125,232.458Zm99.5,36.417c-37.417,4.917 -75.374,6.458 -113.417,4.5c-7.375,-0.375 -13.999,-4.625 -17.375,-11.167l-137.375,-265.708c-2.792,-5.458 -3.042,-11.917 -0.667,-17.583c2.375,-5.667 7.167,-9.958 13.042,-11.792c79.042,-24.167 202.958,-44.583 344.5,-4.375c86.292,24.5 167.833,69.292 235.792,129.5c4.499,4 7.041,9.708 7,15.75c-0.083,6 -2.75,11.667 -7.333,15.584c-75.375,64.125 -164.875,110.167 -258.875,133.042c-21.501,5.25 -43.334,9.333 -65.292,12.25Z" style="fill-rule:nonzero;"/><path d="M2836.053,2201.298c0.042,-51.167 23.042,-100.375 83.458,-118.125c-62.959,-1.458 -97.917,-43.042 -111.208,-92.417c-22.459,-83.292 17.833,-188 -109.875,-240.167c127.709,52.166 172.292,-50.75 246.625,-94.5c49.834,-29.333 112.5,-32.25 161.75,31.291l1.542,-1.208c-48.958,-63.75 -30.208,-123.625 10.833,-164.375c61.167,-60.792 172.042,-77.75 154,-214.542c18.042,136.792 129.542,124.417 204.375,167.292c50.209,28.75 83.834,81.708 53.083,155.958l0.584,0.208c30.833,-74.208 92.083,-87.792 147.875,-72.583c83.208,22.667 153.208,110.333 262.749,26.5c-109.541,83.833 -43.208,174.333 -43.041,260.542c0.125,54.167 -25.417,106.291 -94.084,121.25c70.167,-3.333 108.375,40.417 122.292,92.75c22.208,83.333 -18.417,187.917 109.125,240.5c-127.542,-52.583 -172.417,50.208 -246.917,93.708c-49.917,29.167 -112.625,31.875 -161.625,-31.792l-0.499,0.375c48.958,63.75 30.208,123.625 -10.834,164.375c-61.166,60.792 -172.042,77.792 -154.042,214.542c-18,-136.75 -129.5,-124.417 -204.333,-167.25c-50.209,-28.75 -83.833,-81.75 -53.083,-156l-1.791,-0.75c-31.083,74.125 -92.376,87.542 -148.125,72.167c-83.125,-22.958 -152.875,-110.833 -262.667,-27.333c109.792,-83.5 43.75,-174.208 43.833,-260.417Z" style="fill:url(#_Radial3);"/><path d="M1054.053,357.006c18.458,-46.667 55.333,-122.167 126.958,-194.375c86.25,-87 179.417,-125.292 229.542,-141.875c11.041,56.459 23.792,161.833 -10.126,286.042c-26.292,96.458 -70.541,166.875 -102.208,209.333c-8.708,3.625 -82.749,33.042 -156.083,-9.042c-83.958,-48.167 -87.958,-144.792 -88.083,-150.083Z" style="fill:url(#_Radial4);"/><path d="M1075.012,360.423c1.499,17.583 11.624,90.917 77.458,128.708c56.292,32.292 114.5,16.25 132.667,9.792c43.792,-59.958 75.833,-126.417 95.291,-197.625c22.25,-81.542 26.959,-168.458 13.917,-252.792c-74.583,28.292 -142.875,72.5 -198.625,128.708c-52.167,52.583 -92.75,114.208 -120.708,183.208Zm180.374,188c-33.374,4.375 -78.499,2.542 -123.583,-23.333c-94.833,-54.417 -98.416,-163 -98.5,-167.583c-0.083,-2.792 0.416,-5.542 1.416,-8.125c30.083,-75.958 74.334,-143.708 131.542,-201.375c65.959,-66.5 148.167,-117.333 237.75,-146.958c5.708,-1.875 11.833,-1.208 16.999,1.792c5.126,3 8.75,8.083 9.875,13.917c19.167,97.917 15.583,200.125 -10.458,295.458c-21.333,78.125 -56.833,150.917 -105.584,216.333c-2.207,2.958 -5.208,5.292 -8.666,6.75c-6.542,2.708 -25.25,9.75 -50.792,13.125Z" style="fill-rule:nonzero;"/><path d="M158.387,917.965c0.042,-51.167 23.041,-100.375 83.457,-118.125c-62.958,-1.5 -97.917,-43.042 -111.208,-92.458c-22.458,-83.25 17.833,-187.959 -109.874,-240.125c127.708,52.166 172.291,-50.792 246.625,-94.5c49.833,-29.333 112.5,-32.25 161.75,31.291l1.541,-1.208c-48.958,-63.75 -30.208,-123.625 10.834,-164.375c61.166,-60.792 172.042,-77.75 154,-214.542c18.042,136.792 129.542,124.417 204.375,167.292c50.209,28.708 83.833,81.708 53.083,155.958l0.583,0.208c30.834,-74.208 92.084,-87.833 147.875,-72.583c83.208,22.667 153.208,110.333 262.75,26.5c-109.542,83.833 -43.208,174.292 -43.042,260.542c0.125,54.167 -25.416,106.291 -94.083,121.25c70.208,-3.333 108.375,40.417 122.291,92.75c22.209,83.333 -18.416,187.917 109.126,240.5c-127.542,-52.583 -172.417,50.208 -246.917,93.708c-49.918,29.167 -112.625,31.875 -161.625,-31.791l-0.5,0.375c48.958,63.75 30.208,123.625 -10.833,164.375c-61.167,60.792 -172.042,77.75 -154.043,214.542c-17.999,-136.792 -129.499,-124.417 -204.332,-167.292c-50.209,-28.708 -83.834,-81.708 -53.083,-155.958l-1.792,-0.75c-31.083,74.125 -92.375,87.542 -148.124,72.167c-83.126,-22.958 -152.876,-110.833 -262.667,-27.333c109.791,-83.5 43.75,-174.208 43.833,-260.417Z" style="fill:url(#_Radial5);"/><path d="M441.512,238.465l0.125,-0.042l-0.125,0.042Zm165.834,-124.75c-18.959,47.792 -59.709,74.417 -97.125,98.875c-20.042,13.125 -38.959,25.5 -54.125,40.583c-24.167,24.042 -57.542,73.792 -9.001,137.042l237.542,309.416l149.167,-360.417c30.459,-73.625 -14.625,-113.083 -44.208,-130.042c-18.542,-10.583 -40.042,-17.667 -62.792,-25.125c-42.5,-13.958 -88.708,-29.125 -119.458,-70.333Zm85.417,647.584c-7.333,0.958 -14.667,-2.042 -19.167,-7.917l-259.375,-337.917c-48.875,-63.625 -44.125,-135.292 12.667,-191.708c18.124,-18.042 39.75,-32.209 60.667,-45.875c53,-34.667 98.833,-64.625 87.417,-151.25c-1.5,-11.333 6.499,-21.792 17.833,-23.25c11.375,-1.5 21.792,6.458 23.291,17.833c11.417,86.583 63.417,103.666 123.626,123.417c23.708,7.792 48.249,15.833 70.458,28.542c69.458,39.792 92.625,107.792 61.958,181.917l-162.916,393.583c-2.833,6.833 -9.125,11.667 -16.458,12.625Z" style="fill-rule:nonzero;"/><path d="M722.97,715.506l386.749,-50.417c0.083,-0.042 0.167,-0.042 0.25,-0.042c78.833,-10.417 90.5,-69.083 90.416,-103.167c-0.042,-21.375 -4.666,-43.5 -9.542,-66.958c-9.083,-43.792 -18.999,-91.417 1.417,-138.583c-0.625,0.083 -1.25,0.167 -1.833,0.25c-50.083,6.583 -92.917,-15.125 -132.333,-35.125c-21.376,-10.833 -41.542,-21.042 -62.166,-26.667c-32.876,-9 -92.667,-13.042 -123.25,60.542l-149.708,360.166Zm392.416,-9.333c-0.125,0 -0.167,0 -0.292,0.042l-422.374,55.083c-7.333,0.958 -14.625,-2.083 -19.125,-7.958c-4.542,-5.875 -5.542,-13.708 -2.708,-20.583l163.5,-393.333c30.75,-74.042 95.249,-105.667 172.458,-84.667c24.708,6.75 47.708,18.417 70,29.708c56.542,28.667 105.375,53.458 174.708,0.333c9.125,-6.958 22.125,-5.208 29.083,3.875c2.292,3 3.625,6.375 4.083,9.875c0.958,7.083 -1.833,14.5 -7.958,19.208c-69.375,53.083 -58.208,106.667 -45.292,168.708c5.084,24.458 10.334,49.75 10.375,75.333c0.167,79.958 -47.083,133.916 -126.458,144.375Z" style="fill-rule:nonzero;"/><path d="M104.594,501.506c32.083,40.167 35.001,88.75 37.667,133.375c1.459,23.917 2.833,46.5 8.375,67.125c8.876,32.833 35.417,86.25 113.792,75.875c0.25,0 0.499,-0.042 0.75,-0.083l386.458,-52.75l-238.917,-308.333c-48.833,-63 -105.416,-43.375 -134.833,-26.083c-18.416,10.833 -35.208,26 -53,42.042c-33.167,29.958 -68.75,62.833 -120.292,68.833Zm165.292,317.5c-79.043,10.417 -138.542,-29.208 -159.293,-106.208c-6.666,-24.708 -8.208,-50.5 -9.708,-75.417c-3.834,-63.25 -7.125,-117.917 -88,-150.958c-7.125,-2.917 -11.749,-9.375 -12.709,-16.5c-0.458,-3.458 -0.041,-7.083 1.375,-10.542c4.333,-10.583 16.458,-15.667 27.042,-11.333c80.917,33.042 121.501,-3.667 168.5,-46.125c18.542,-16.75 37.709,-34.083 59.75,-47.042c69.042,-40.583 139.542,-26.958 188.667,36.458l260.916,336.667c4.542,5.875 5.625,13.708 2.792,20.583c-2.792,6.833 -9.042,11.667 -16.375,12.667l-422.042,57.625c-0.292,0.041 -0.626,0.083 -0.917,0.125Z" style="fill-rule:nonzero;"/><path d="M546.261,1142.215c-30.459,73.667 14.625,113.125 44.25,130.042c18.541,10.625 40.041,17.708 62.791,25.167c42.459,13.917 88.708,29.083 119.417,70.292c19,-47.75 59.709,-74.375 97.125,-98.875c20.041,-13.083 38.958,-25.5 54.125,-40.542c24.166,-24.041 57.541,-73.833 9,-137.083l-237.5,-309.375l-149.209,360.417l0,-0.042Zm241,335.875c-11.333,1.5 -21.75,-6.5 -23.25,-17.833c-11.417,-86.625 -63.417,-103.667 -123.625,-123.417c-23.75,-7.792 -48.292,-15.875 -70.5,-28.584c-69.459,-39.792 -92.626,-107.792 -61.959,-181.875l162.959,-393.583c5.666,-13.667 26.583,-16.458 35.624,-4.708l259.375,337.875c48.834,63.667 44.084,135.333 -12.708,191.75c-18.125,18.042 -39.75,32.167 -60.625,45.875c-53.042,34.667 -98.833,64.625 -87.417,151.25c1.499,11.333 -6.5,21.75 -17.875,23.25Z" style="fill-rule:nonzero;"/><path d="M1112.261,684.423c79.666,-10.583 122.209,35.5 137.083,91.417c22.209,83.333 -18.416,187.917 109.126,240.5c-127.542,-52.583 -172.417,50.208 -246.917,93.708c-49.918,29.167 -112.625,31.875 -161.625,-31.791l-259.875,-337.542l422.209,-56.292Z" style="fill:#fff;fill-rule:nonzero;"/><path d="M728.386,756.548l237.959,309.042c48.625,63.167 105.292,43.75 134.75,26.542c18.458,-10.792 35.292,-25.917 53.083,-41.917c32.875,-29.5 68.625,-61.583 118.75,-68.208c0.583,-0.083 1.207,-0.125 1.791,-0.208c-31.958,-40.292 -34.709,-88.833 -37.25,-133.5c-1.375,-23.917 -2.667,-46.5 -8.167,-67.167c-8.75,-32.917 -35.251,-86.583 -114.084,-76.167c-0.083,0 -0.125,0 -0.209,0.042l-386.625,51.542Zm333.042,393.042c-48,6.333 -93.376,-13.75 -127.958,-58.708l-259.875,-337.5c-4.5,-5.875 -5.542,-13.708 -2.708,-20.542c2.791,-6.875 9.083,-11.667 16.416,-12.667l422.209,-56.292c0.082,0 0.208,-0.042 0.291,-0.042c79.375,-10.458 139,29.375 159.584,106.625c6.584,24.75 8.041,50.542 9.458,75.459c3.624,63.292 6.749,117.917 87.5,151.25c7.125,2.917 11.75,9.333 12.667,16.458c0.458,3.5 0.042,7.125 -1.375,10.583c-4.375,10.583 -16.458,15.667 -27.083,11.292c-80.708,-33.292 -121.5,3.25 -168.625,45.583c-18.583,16.708 -37.834,33.958 -59.916,46.833c-20.292,11.833 -40.667,19.042 -60.583,21.667Z" style="fill-rule:nonzero;"/><path d="M187.969,1123.34c50.334,-6.625 93.209,15.292 132.667,35.458c21.333,10.917 41.5,21.208 62.083,26.917c32.917,9.083 92.667,13.333 123.459,-60.167l150.833,-359.708l-386.917,49.208c-0.249,0.042 -0.499,0.083 -0.75,0.125c-78.375,10.333 -90.208,68.792 -90.208,102.792c-0.042,21.333 4.499,43.5 9.292,67c9,43.792 18.75,91.458 -1.792,138.583c0.459,-0.083 0.876,-0.125 1.334,-0.209Zm248.25,107.667c-20.084,2.667 -41.75,0.958 -64.542,-5.333c-24.666,-6.791 -47.666,-18.541 -69.917,-29.917c-56.417,-28.833 -105.125,-53.75 -174.708,-0.875c-9.084,6.958 -22.125,5.167 -29.042,-3.958c-2.25,-3 -3.584,-6.375 -4.043,-9.833c-0.958,-7.125 1.876,-14.542 8.001,-19.25c69.541,-52.875 58.542,-106.5 45.833,-168.542c-5,-24.5 -10.166,-49.792 -10.166,-75.375c0.082,-79.75 47.291,-133.458 126.291,-143.875c0.334,-0.042 0.626,-0.083 0.917,-0.125l422.584,-53.75c7.333,-0.959 14.625,2.125 19.124,8c4.5,5.917 5.5,13.75 2.626,20.583l-164.75,392.833c-21.833,52.125 -60.375,83.125 -108.208,89.417Z" style="fill-rule:nonzero;"/><path d="M690.053,740.715l-48.125,-365" style="fill:none;fill-rule:nonzero;"/><path d="M692.762,761.298c-11.375,1.5 -21.792,-6.5 -23.292,-17.833l-48.125,-365.083c-1.499,-11.333 6.5,-21.75 17.833,-23.25c11.375,-1.5 21.792,6.5 23.292,17.833l48.124,365.042c1.5,11.375 -6.499,21.792 -17.832,23.292Z" style="fill-rule:nonzero;"/><path d="M690.053,740.715l292.042,-224.167" style="fill:none;fill-rule:nonzero;"/><path d="M692.762,761.298c-7.084,0.917 -14.5,-1.833 -19.167,-7.917c-6.958,-9.125 -5.25,-22.125 3.833,-29.125l292.042,-224.208c9.125,-6.917 22.125,-5.208 29.083,3.833c6.958,9.083 5.25,22.125 -3.833,29.083l-292.042,224.208c-3,2.292 -6.417,3.667 -9.916,4.125Z" style="fill-rule:nonzero;"/><path d="M690.053,740.715l340.209,140.833" style="fill:none;fill-rule:nonzero;"/><path d="M1032.928,902.131c-3.5,0.458 -7.125,0.042 -10.625,-1.417l-340.208,-140.833c-10.583,-4.375 -15.583,-16.5 -11.208,-27.083c4.374,-10.583 16.542,-15.542 27.083,-11.25l340.208,140.833c10.583,4.375 15.583,16.542 11.208,27.125c-2.916,7.083 -9.333,11.667 -16.458,12.625Z" style="fill-rule:nonzero;"/><path d="M690.053,740.715l48.125,365.042" style="fill:none;fill-rule:nonzero;"/><path d="M740.886,1126.34c-11.333,1.5 -21.75,-6.5 -23.249,-17.875l-48.167,-365c-1.459,-11.375 6.5,-21.792 17.875,-23.292c11.333,-1.5 21.75,6.5 23.249,17.833l48.125,365.042c1.5,11.333 -6.459,21.792 -17.833,23.292Z" style="fill-rule:nonzero;"/><path d="M690.053,740.715l-292.083,224.208" style="fill:none;fill-rule:nonzero;"/><path d="M400.72,985.506c-7.125,0.917 -14.5,-1.833 -19.209,-7.958c-6.958,-9.083 -5.25,-22.083 3.834,-29.083l292.083,-224.208c9.084,-6.917 22.084,-5.25 29.083,3.833c6.959,9.083 5.25,22.125 -3.833,29.083l-292.084,224.209c-3,2.292 -6.416,3.666 -9.874,4.125Z" style="fill-rule:nonzero;"/><path d="M690.053,740.715l-340.208,-140.792" style="fill:none;fill-rule:nonzero;"/><path d="M692.72,761.298c-3.459,0.458 -7.126,0.041 -10.583,-1.417l-340.209,-140.833c-10.582,-4.375 -15.625,-16.5 -11.25,-27.083c4.417,-10.583 16.542,-15.583 27.083,-11.25l340.209,140.833c10.582,4.375 15.625,16.542 11.25,27.125c-2.958,7.083 -9.375,11.667 -16.5,12.625Z" style="fill-rule:nonzero;"/><path d="M518.762,763.34c-12.5,-94.625 54.083,-181.417 148.708,-193.917c94.583,-12.458 181.417,54.125 193.875,148.708c12.5,94.625 -54.083,181.417 -148.708,193.917c-94.626,12.458 -181.417,-54.125 -193.875,-148.708Z" style="fill:#fec126;fill-rule:nonzero;"/><path d="M670.178,590.006c-83.125,10.958 -141.833,87.5 -130.875,170.625c10.958,83.083 87.5,141.792 170.625,130.833c83.083,-10.958 141.792,-87.5 130.834,-170.625c-10.959,-83.125 -87.5,-141.792 -170.584,-130.833Zm45.167,342.583c-105.792,13.958 -203.208,-60.75 -217.167,-166.542c-13.958,-105.791 60.75,-203.25 166.583,-217.167c105.751,-13.958 203.167,60.75 217.125,166.542c13.959,105.792 -60.75,203.208 -166.542,217.167Z" style="fill-rule:nonzero;"/><path d="M619.803,750.006c-5.125,-38.792 22.208,-74.375 61,-79.5c38.792,-5.125 74.375,22.167 79.5,60.958c5.083,38.792 -22.209,74.375 -61.001,79.5c-38.791,5.125 -74.374,-22.167 -79.499,-60.958Z" style="fill-rule:nonzero;"/><path d="M683.511,691.048c-27.416,3.625 -46.75,28.834 -43.166,56.25c3.624,27.375 28.875,46.708 56.25,43.125c27.375,-3.625 46.75,-28.833 43.125,-56.25c-3.625,-27.375 -28.834,-46.75 -56.209,-43.125Zm18.501,140.458c-50.083,6.625 -96.167,-28.75 -102.792,-78.792c-6.583,-50.083 28.792,-96.208 78.834,-102.792c50.083,-6.583 96.166,28.75 102.791,78.834c6.584,50.083 -28.75,96.166 -78.833,102.75Z" style="fill-rule:nonzero;"/><path d="M3133.262,1537.173c-24.167,24.042 -57.5,73.833 -8.959,137.042l237.5,309.417l149.167,-360.375c30.5,-73.667 -14.625,-113.125 -44.208,-130.083c-18.542,-10.583 -40.042,-17.625 -62.792,-25.125c-42.5,-13.917 -88.708,-29.084 -119.417,-70.333c-18.999,47.792 -59.708,74.417 -97.124,98.917c-20.042,13.083 -39,25.5 -54.167,40.542Zm236.667,508.125c-7.333,0.958 -14.625,-2.042 -19.167,-7.917l-259.375,-337.917c-48.833,-63.625 -44.084,-135.292 12.667,-191.708c18.124,-18.041 39.75,-32.167 60.667,-45.875c53.042,-34.666 98.833,-64.625 87.417,-151.25c-1.5,-11.333 6.499,-21.75 17.874,-23.25c11.334,-1.5 21.751,6.5 23.25,17.833c11.417,86.625 63.417,103.667 123.625,123.417c23.751,7.792 48.292,15.875 70.501,28.583c69.416,39.792 92.583,107.792 61.916,181.875l-162.916,393.583c-2.834,6.833 -9.084,11.667 -16.458,12.625Z" style="fill-rule:nonzero;"/><path d="M3400.137,1999.548l386.791,-50.458c0.083,0 0.167,-0.042 0.209,-0.042c78.875,-10.375 90.5,-69.083 90.416,-103.167c-0.042,-21.333 -4.624,-43.5 -9.5,-66.958c-9.125,-43.75 -19.041,-91.417 1.375,-138.583c-0.583,0.083 -1.208,0.167 -1.791,0.25c-50.125,6.625 -92.959,-15.125 -132.333,-35.083c-21.376,-10.833 -41.583,-21.083 -62.167,-26.708c-32.916,-8.958 -92.708,-13 -123.291,60.542l-149.708,360.208Zm392.416,-9.375c-0.083,0 -0.167,0.042 -0.25,0.042l-422.374,55.083c-7.375,0.958 -14.667,-2.083 -19.167,-7.958c-4.5,-5.875 -5.542,-13.708 -2.667,-20.542l163.459,-393.375c30.791,-74.042 95.291,-105.667 172.5,-84.625c24.666,6.708 47.708,18.375 70,29.708c56.5,28.667 105.375,53.417 174.666,0.333c9.125,-6.959 22.125,-5.25 29.083,3.833c2.292,3 3.667,6.375 4.125,9.875c0.917,7.125 -1.875,14.542 -7.958,19.208c-69.376,53.083 -58.25,106.667 -45.334,168.708c5.083,24.459 10.375,49.75 10.417,75.333c0.167,79.958 -47.124,133.917 -126.499,144.375Z" style="fill-rule:nonzero;"/><path d="M2781.761,1785.506c32.083,40.208 35.001,88.75 37.709,133.375c1.417,23.917 2.791,46.5 8.333,67.125c8.875,32.833 35.458,86.25 113.792,75.917c0.291,-0.042 0.499,-0.083 0.791,-0.125l386.458,-52.75l-238.959,-308.292c-48.833,-63 -105.416,-43.375 -134.833,-26.125c-18.417,10.833 -35.208,26 -53,42.083c-32.876,29.708 -68.583,62 -118.917,68.625c-0.459,0.042 -0.917,0.125 -1.375,0.167Zm165.291,317.5c-79,10.458 -138.5,-29.208 -159.292,-106.208c-6.624,-24.708 -8.208,-50.5 -9.708,-75.417c-3.792,-63.25 -7.125,-117.875 -87.959,-150.958c-7.167,-2.875 -11.792,-9.334 -12.75,-16.5c-0.458,-3.458 0,-7.042 1.375,-10.5c4.333,-10.583 16.458,-15.708 27.042,-11.375c80.875,33.042 121.5,-3.625 168.5,-46.125c18.542,-16.75 37.709,-34.083 59.75,-47.042c69,-40.542 139.542,-26.917 188.667,36.458l260.916,336.708c4.584,5.833 5.625,13.667 2.834,20.542c-2.792,6.833 -9.042,11.708 -16.417,12.708l-422.041,57.625c-0.292,0.042 -0.626,0.083 -0.918,0.083Z" style="fill-rule:nonzero;"/><path d="M3223.47,2426.256c-30.5,73.625 14.625,113.083 44.209,130.042c18.541,10.625 40.041,17.667 62.791,25.125c42.501,13.917 88.708,29.083 119.417,70.333c19,-47.792 59.708,-74.417 97.125,-98.875c20.041,-13.125 38.999,-25.5 54.125,-40.583c24.208,-24.042 57.541,-73.833 9,-137.042l-237.5,-309.375l-149.167,360.375Zm241,335.833c-11.375,1.5 -21.792,-6.5 -23.292,-17.833c-11.417,-86.625 -63.417,-103.667 -123.625,-123.417c-23.75,-7.792 -48.292,-15.833 -70.501,-28.542c-69.458,-39.792 -92.583,-107.792 -61.916,-181.917l162.917,-393.583c2.833,-6.833 9.125,-11.625 16.458,-12.625c7.333,-0.958 14.625,2.042 19.166,7.958l259.375,337.875c48.833,63.625 44.125,135.292 -12.667,191.708c-18.166,18.042 -39.749,32.208 -60.666,45.875c-53.042,34.667 -98.833,64.625 -87.417,151.25c1.499,11.333 -6.5,21.75 -17.833,23.25Z" style="fill-rule:nonzero;"/><path d="M3405.553,2040.548l237.959,309.042c48.666,63.208 105.292,43.75 134.75,26.542c18.458,-10.792 35.292,-25.875 53.125,-41.875c32.875,-29.542 68.625,-61.625 118.708,-68.208c0.625,-0.083 1.207,-0.167 1.833,-0.25c-31.959,-40.25 -34.75,-88.833 -37.291,-133.458c-1.375,-23.958 -2.667,-46.542 -8.168,-67.167c-8.749,-32.958 -35.25,-86.583 -114.041,-76.208c-0.083,0 -0.167,0.042 -0.25,0.042l-386.625,51.542Zm333.084,393.042c-48.042,6.333 -93.376,-13.75 -128.001,-58.667l-259.833,-337.542c-4.542,-5.875 -5.584,-13.708 -2.75,-20.542c2.833,-6.833 9.083,-11.667 16.416,-12.667l422.249,-56.292c0.083,0 0.167,0 0.25,-0.042c79.375,-10.458 139.042,29.417 159.584,106.667c6.584,24.708 8.083,50.5 9.5,75.458c3.624,63.25 6.708,117.917 87.5,151.208c7.125,2.917 11.709,9.375 12.667,16.458c0.458,3.5 0.042,7.125 -1.417,10.625c-4.333,10.583 -16.458,15.667 -27.083,11.25c-80.708,-33.292 -121.458,3.292 -168.625,45.583c-18.583,16.708 -37.834,33.958 -59.917,46.875c-20.249,11.833 -40.625,19 -60.541,21.625Z" style="fill-rule:nonzero;"/><path d="M2865.178,2407.381c50.292,-6.625 93.167,15.292 132.625,35.458c21.333,10.875 41.5,21.208 62.083,26.875c32.917,9.083 92.667,13.333 123.501,-60.167l150.833,-359.708l-386.959,49.208c-0.249,0.042 -0.499,0.083 -0.75,0.125c-78.375,10.334 -90.166,68.792 -90.208,102.792c0,21.375 4.499,43.542 9.292,67c9,43.792 18.75,91.458 -1.792,138.583c0.459,-0.042 0.918,-0.125 1.375,-0.167Zm248.209,107.667c-20.084,2.625 -41.75,0.917 -64.542,-5.333c-24.667,-6.833 -47.666,-18.583 -69.917,-29.958c-56.417,-28.833 -105.083,-53.75 -174.666,-0.875c-9.084,7 -22.125,5.167 -29.043,-3.958c-2.291,-2.958 -3.624,-6.333 -4.083,-9.833c-0.917,-7.125 1.876,-14.542 8.042,-19.208c69.5,-52.875 58.541,-106.5 45.833,-168.583c-5.043,-24.5 -10.209,-49.792 -10.167,-75.375c0.083,-79.75 47.292,-133.458 126.292,-143.875c0.292,-0.042 0.584,-0.083 0.917,-0.125l422.542,-53.75c7.375,-0.958 14.667,2.125 19.124,8.042c4.5,5.875 5.5,13.708 2.626,20.542l-164.708,392.833c-21.875,52.125 -60.417,83.125 -108.25,89.458Z" style="fill-rule:nonzero;"/><path d="M3367.22,2024.756l-48.125,-365.042" style="fill:none;fill-rule:nonzero;"/><path d="M3369.928,2045.298c-11.334,1.5 -21.751,-6.5 -23.25,-17.833l-48.125,-365.042c-1.5,-11.375 6.459,-21.792 17.833,-23.292c11.333,-1.5 21.75,6.5 23.25,17.875l48.124,365.042c1.5,11.333 -6.458,21.75 -17.832,23.25Z" style="fill-rule:nonzero;"/><path d="M3367.22,2024.756l292.084,-224.208" style="fill:none;fill-rule:nonzero;"/><path d="M3369.969,2045.298c-7.125,0.958 -14.5,-1.833 -19.208,-7.917c-6.958,-9.083 -5.25,-22.125 3.833,-29.083l292.042,-224.208c9.166,-6.958 22.125,-5.25 29.083,3.833c7,9.084 5.292,22.084 -3.791,29.084l-292.084,224.208c-3,2.25 -6.417,3.625 -9.875,4.083Z" style="fill-rule:nonzero;"/><path d="M3367.22,2024.756l340.209,140.833" style="fill:none;fill-rule:nonzero;"/><path d="M3710.095,2186.131c-3.459,0.458 -7.125,0.042 -10.625,-1.375l-340.166,-140.833c-10.583,-4.417 -15.625,-16.542 -11.25,-27.125c4.416,-10.542 16.542,-15.542 27.124,-11.208l340.167,140.833c10.583,4.375 15.625,16.5 11.25,27.083c-2.958,7.083 -9.375,11.708 -16.5,12.625Z" style="fill-rule:nonzero;"/><path d="M3367.22,2024.756l48.167,365.042" style="fill:none;fill-rule:nonzero;"/><path d="M3418.094,2410.34c-11.375,1.5 -21.792,-6.5 -23.291,-17.833l-48.125,-365.042c-1.5,-11.375 6.5,-21.792 17.833,-23.292c11.333,-1.5 21.75,6.5 23.249,17.875l48.167,365c1.5,11.375 -6.5,21.792 -17.833,23.292Z" style="fill-rule:nonzero;"/><path d="M3367.22,2024.756l-292.042,224.208" style="fill:none;fill-rule:nonzero;"/><path d="M3077.886,2269.506c-7.125,0.958 -14.5,-1.833 -19.167,-7.917c-7,-9.083 -5.292,-22.125 3.834,-29.083l292.041,-224.208c9.125,-6.958 22.125,-5.25 29.083,3.833c6.959,9.084 5.25,22.084 -3.833,29.084l-292.084,224.167c-2.958,2.292 -6.374,3.667 -9.874,4.125Z" style="fill-rule:nonzero;"/><path d="M3367.22,2024.756l-340.166,-140.833" style="fill:none;fill-rule:nonzero;"/><path d="M3369.928,2045.298c-3.5,0.458 -7.168,0.042 -10.625,-1.375l-340.209,-140.833c-10.583,-4.375 -15.625,-16.542 -11.25,-27.125c4.375,-10.542 16.542,-15.542 27.083,-11.208l340.209,140.834c10.624,4.375 15.625,16.5 11.25,27.083c-2.958,7.083 -9.375,11.708 -16.458,12.625Z" style="fill-rule:nonzero;"/><path d="M3195.928,2047.34c-12.458,-94.625 54.125,-181.417 148.708,-193.917c94.625,-12.458 181.417,54.125 193.917,148.75c12.458,94.583 -54.125,181.417 -148.709,193.875c-94.625,12.458 -181.458,-54.125 -193.916,-148.708Z" style="fill:#fec126;fill-rule:nonzero;"/><path d="M3347.344,1874.006c-83.125,10.958 -141.833,87.5 -130.875,170.625c11,83.125 87.5,141.833 170.625,130.833c83.125,-10.958 141.833,-87.5 130.875,-170.583c-10.958,-83.125 -87.5,-141.833 -170.625,-130.875Zm45.209,342.583c-105.834,13.958 -203.25,-60.75 -217.167,-166.542c-13.958,-105.792 60.75,-203.208 166.542,-217.167c105.792,-13.958 203.208,60.75 217.167,166.583c13.959,105.75 -60.792,203.208 -166.542,217.125Z" style="fill-rule:nonzero;"/><path d="M3297.012,2034.006c-5.126,-38.792 22.166,-74.375 60.958,-79.5c38.792,-5.125 74.375,22.167 79.5,60.958c5.125,38.792 -22.167,74.417 -60.959,79.5c-38.792,5.125 -74.374,-22.167 -79.499,-60.958Z" style="fill-rule:nonzero;"/><path d="M3360.678,1975.048c-27.416,3.625 -46.75,28.833 -43.124,56.25c3.624,27.375 28.833,46.75 56.25,43.125c27.334,-3.625 46.708,-28.833 43.083,-56.25c-3.583,-27.375 -28.833,-46.75 -56.208,-43.125Zm18.542,140.5c-50.083,6.583 -96.167,-28.792 -102.792,-78.833c-6.583,-50.083 28.751,-96.167 78.834,-102.792c50.042,-6.583 96.166,28.792 102.75,78.833c6.625,50.083 -28.75,96.167 -78.791,102.792Z" style="fill-rule:nonzero;"/><path d="M3378.386,1233.215l356.834,-47.083l-47.084,-356.792l-356.791,47.042l47.041,356.833Z" style="fill:url(#_Linear6);"/><path d="M3396.219,1209.923l315.708,-41.625l-41.625,-315.667l-315.708,41.625l41.625,315.667Zm341.667,-3.208l-356.791,47.042c-11.333,1.5 -21.75,-6.5 -23.25,-17.833l-47.084,-356.833c-1.499,-11.333 6.5,-21.75 17.875,-23.25l356.792,-47.042c11.333,-1.5 21.75,6.458 23.249,17.833l47.084,356.792c1.5,11.375 -6.542,21.792 -17.875,23.292Z" style="fill-rule:nonzero;"/><path d="M3712.22,1013.173c-32.167,-245.042 -640.126,48.792 -683.709,-282.917c-35.083,-267.375 329,-237.083 508.625,-288.375c179.625,-51.292 368.792,-164.25 368.792,-164.25c0,0 6,310.083 -307.25,476.333c-4,2.125 -8.083,4.208 -12.208,6.292c0,0 313.542,67.125 480.875,-20.292c0,0 -22.708,259.042 -341.25,378.917l-13.875,-105.709Z" style="fill:url(#_Linear7);"/><path d="M3732.719,1010.465l10.458,79.292c214.875,-90.083 278.292,-244.542 296.459,-315.042c-175.834,64.917 -445.334,8.417 -457.5,5.792c-8.625,-1.833 -15.126,-8.875 -16.209,-17.625c-1.167,-8.708 3.375,-17.167 11.209,-21.167c4,-2 7.916,-4.042 11.833,-6.083c238.625,-126.667 285.126,-336.541 294.084,-421.083c-62.625,34.792 -203.042,108.083 -340.25,147.25c-43.251,12.375 -95.709,19.958 -151.25,28c-214.708,31.083 -364.959,66.333 -342.5,237.75c21.041,160.125 194.291,157.75 361.833,155.5c149.75,-2.042 304.584,-4.125 321.833,127.417Zm-3.916,128.958c-4.625,0.625 -9.333,-0.333 -13.417,-2.75c-5.375,-3.25 -9.041,-8.833 -9.875,-15.083l-13.874,-105.75c-11.625,-88.542 -113.625,-93.583 -280.208,-91.333c-177,2.417 -377.667,5.125 -403.5,-191.542c-29.542,-225.25 196.25,-257.958 377.666,-284.208c54.126,-7.833 105.208,-15.25 145.833,-26.833c174.834,-49.917 361.959,-161 363.834,-162.083c6.333,-3.792 14.251,-3.958 20.708,-0.333c6.459,3.583 10.5,10.333 10.667,17.708c0.042,3.083 2.334,298.042 -279.083,472.542c96.458,14.292 293.125,33 410.166,-28.208c6.75,-3.458 14.834,-3.042 21.125,1.125c6.292,4.208 9.792,11.542 9.125,19.083c-0.958,11.083 -27.583,273.458 -354.583,396.542c-1.5,0.542 -3.042,0.958 -4.584,1.125Z" style="fill-rule:nonzero;"/><path d="M1301.803,2322.59c35.25,267.333 -328.875,237.292 -508.458,288.667c-179.584,51.375 -368.667,164.458 -368.667,164.458c0,0 -6.208,-310.042 306.958,-476.5c4,-2.125 8.084,-4.208 12.167,-6.333c0,0 -313.542,-66.917 -480.792,20.625c0,0 22.501,-259.083 341,-379.125l671.291,187.333l26.5,200.875Z" style="fill:url(#_Linear8);"/><path d="M395.345,2254.006c161.834,-21.333 342.833,16.5 352.791,18.583c8.584,1.875 15.084,8.917 16.251,17.625c1.125,8.708 -3.375,17.208 -11.208,21.167c-3.959,2.042 -7.917,4.083 -11.834,6.167c-238.583,126.792 -284.958,336.667 -293.875,421.208c62.625,-34.833 203,-108.208 340.167,-147.458c43.291,-12.375 95.75,-20 151.249,-28.083c214.708,-31.208 364.917,-66.542 342.334,-237.917l-24.709,-187.292l-651.499,-181.833c-229.417,88.917 -295.75,250.125 -314.375,322.5c32.417,-11.958 68.083,-19.833 104.708,-24.667Zm32.041,542.25c-4.332,0.583 -8.791,-0.208 -12.749,-2.417c-6.459,-3.583 -10.542,-10.333 -10.709,-17.708c-0.042,-3.083 -2.5,-298.042 278.791,-472.708c-96.416,-14.208 -293.083,-32.75 -410.125,28.417c-6.709,3.583 -14.792,3.125 -21.125,-1.083c-6.292,-4.208 -9.791,-11.5 -9.125,-19.042c0.958,-11.125 27.417,-273.5 354.333,-396.75c4.167,-1.542 8.667,-1.75 12.874,-0.583l671.292,187.333c8,2.25 13.917,9.042 15,17.292l26.499,200.875c29.709,225.208 -196.084,258.042 -377.499,284.375c-54.083,7.875 -105.208,15.333 -145.792,26.917c-174.792,50.042 -361.875,161.208 -363.75,162.333c-2.459,1.458 -5.167,2.375 -7.917,2.75Z" style="fill-rule:nonzero;"/><path d="M1270.97,2088.673l30.833,233.917c-43.75,-331.708 -651.542,-37.5 -683.876,-282.5l-34.125,-258.833l723.083,-47.625l-35.916,355.042Z" style="fill:url(#_Linear9);"/><path d="M607.262,1800.465l31.208,236.875c11.708,88.583 113.708,93.541 280.292,91.208c127.75,-1.833 267.833,-3.792 345.625,69.208l-14.042,-106.375c-0.208,-1.583 -0.208,-3.208 -0.042,-4.792l33.5,-330.667l-676.541,44.542Zm697.208,542.667c-11.333,1.5 -21.75,-6.5 -23.249,-17.833c-21.125,-160.125 -194.334,-157.667 -361.875,-155.292c-149.75,2.125 -304.624,4.292 -321.958,-127.208l-34.125,-258.833c-0.791,-5.667 0.875,-11.417 4.5,-15.875c3.624,-4.417 9.041,-7.083 14.667,-7.542l723.082,-47.625c6.125,-0.417 12.084,1.917 16.292,6.292c4.25,4.375 6.333,10.417 5.708,16.5l-35.708,352.667l30.499,231.5c1.5,11.333 -6.459,21.75 -17.833,23.25Z" style="fill-rule:nonzero;"/><path d="M2069.303,799.756c51.75,-262.417 300.292,-510.292 637.291,-554.708c397.626,-52.458 762.5,227.417 814.959,625.042c15.583,118.25 1.583,233.5 -35.959,338.625c-206.125,714.417 -1145.541,1644.125 -1145.541,1644.125c0,0 -1148.291,-654.417 -1532.584,-1290.958c-63.5,-91.792 -106.916,-199.5 -122.5,-317.708c-52.417,-397.667 227.417,-762.541 625.042,-814.958c337.001,-44.458 641.333,130.5 759.292,370.542Z" style="fill:url(#_Linear10);"/><path d="M1312.719,449.756c-385.666,50.875 -658.041,406 -607.208,791.667c14.792,112.042 54.834,215.875 119,308.625c355.208,588.333 1381.25,1200.375 1512.125,1276.833c106.542,-107.792 938.834,-964.833 1129.043,-1623.917c38.333,-107.458 50.083,-218.125 35.292,-330.167c-50.875,-385.667 -406.001,-658.042 -791.708,-607.208c-305.5,40.292 -566.084,266.625 -619.625,538.167c-1.709,8.708 -8.792,15.375 -17.625,16.542c-8.834,1.167 -17.417,-3.417 -21.334,-11.417c-122.084,-248.375 -432.417,-399.417 -737.959,-359.125Zm1030.043,2423.625c-4.375,0.583 -8.959,-0.208 -13,-2.542c-11.542,-6.542 -1157.417,-664.375 -1540.083,-1298.25c-67.251,-97.167 -109.625,-207.125 -125.292,-325.75c-53.833,-408.333 234.584,-784.333 642.917,-838.208c302.833,-39.917 610.666,99.167 754.541,334.583c77.958,-264.667 339.209,-478.792 642,-518.75c408.375,-53.833 784.417,234.583 838.25,642.917c15.625,118.625 3.208,235.833 -37,348.292c-204.834,710.167 -1141.042,1642.583 -1150.5,1651.917c-3.292,3.25 -7.458,5.208 -11.833,5.792Z" style="fill-rule:nonzero;"/><path d="M2609.428,1570.881c-330.375,-12.208 -662.292,-23.75 -992.917,-22.125c-163.167,0.792 -326.459,6.25 -487.042,36.917c-34.583,-47.125 -65.791,-94.458 -92.583,-141.625c-52.916,-81.625 -89.458,-177.167 -103.25,-281.833c-30.333,-230.125 153.25,-444.125 410.042,-477.958c444.333,-58.625 770.041,452.083 770.041,452.083c0,0 182.126,-577.666 626.5,-636.25c256.792,-33.875 489.542,125.208 519.917,355.333c13.792,104.667 3.292,206.417 -26.666,298.958c-37.126,143.167 -105.375,295.875 -188.542,446.333c-144.668,-15.875 -290.042,-24.417 -435.5,-29.833Z" style="fill:url(#_Radial11);"/><path d="M1224.136,1549.506c132.75,-17.5 266,-20.875 392.251,-21.5c322,-1.583 640.583,9.084 993.792,22.167c163.166,6.042 298.125,15.083 423.209,28.417c86.582,-158.333 147.124,-302.75 180,-429.417c30.541,-94.542 39.208,-192.042 26.167,-291.042c-28.792,-218.417 -251.584,-369.792 -496.626,-337.5c-425.917,56.167 -607.708,616.292 -609.499,621.958c-2.417,7.667 -9.042,13.25 -17.042,14.292c-8,1.083 -15.875,-2.583 -20.167,-9.375c-3.208,-5 -323.917,-498.875 -749.875,-442.708c-245.042,32.333 -420.958,236.292 -392.166,454.708c13.041,99 46.75,190.916 100.083,273.25c24.041,42.292 52.166,85.75 84.208,130.125c28.499,-5.208 57.083,-9.625 85.666,-13.375Zm1823.501,71.75c-1.666,0.25 -3.334,0.25 -5,0.083c-127.958,-14.042 -265.875,-23.5 -434.001,-29.708c-352.708,-13.083 -670.833,-23.75 -992.041,-22.167c-155.584,0.792 -321.792,5.792 -483.292,36.583c-7.333,1.667 -15.875,-1.625 -20.584,-8.083c-36.208,-49.375 -67.791,-97.708 -93.874,-143.708c-56.084,-86.5 -91.917,-184.208 -105.792,-289.333c-31.791,-241.084 160.166,-465.917 427.875,-501.25c388.959,-51.292 683.333,311.25 766.792,427.292c50.459,-133.708 240.792,-560.167 629.792,-611.458c267.708,-35.292 511.375,132.125 543.166,373.208c13.834,105.125 4.625,208.792 -27.499,308.042c-34.251,132.083 -98.292,283.875 -190.126,450c-3.25,5.833 -9,9.667 -15.416,10.5Z" style="fill-rule:nonzero;"/><path d="M1198.72,1591.048c330.208,-50.708 672.5,-21.166 1004.958,-14c277.375,5.958 556.041,10.083 832.125,40.125c-283.25,505.25 -729.375,980.625 -729.375,980.625c0,0 -781.167,-484.208 -1165.583,-996.667c19.209,-3.625 38.5,-7.083 57.876,-10.084Z" style="fill:url(#_Linear12);"/><path d="M1198.678,1591.048l0.167,-0.041l-0.167,0.041Zm-20.792,24.417c354.75,455.541 1018.667,887.875 1125,955.583c70.458,-76.917 445.75,-494.583 699.209,-936.583c-246.417,-25.042 -498.375,-30.375 -742.334,-35.5l-56.583,-1.208c-72,-1.542 -145.75,-4.208 -217.084,-6.75c-259.292,-9.292 -527.334,-18.917 -784.25,20.542c-8,1.208 -16,2.542 -23.958,3.917Zm1131.208,1002.875c-4.584,0.625 -9.417,-0.333 -13.625,-2.917c-7.833,-4.875 -788.917,-492.167 -1171.25,-1001.833c-4.291,-5.75 -5.292,-13.292 -2.708,-19.958c2.584,-6.708 8.417,-11.583 15.458,-12.875c19.458,-3.667 38.959,-7.208 58.584,-10.208c260.5,-40 530.833,-30.375 792.042,-21c71.166,2.542 144.75,5.208 216.5,6.75l56.541,1.208c255.25,5.375 519.167,10.958 777.375,39.042c6.917,0.75 13,4.958 16.209,11.125c3.167,6.208 3.042,13.583 -0.375,19.625c-281.167,501.667 -727.833,979.917 -732.333,984.667c-3.375,3.625 -7.792,5.792 -12.417,6.375Z" style="fill-rule:nonzero;"/><path d="M2122.219,1201.006c477.083,25.125 1617.833,22.125 1590.167,-187.958l68.583,520.208c-396.167,446 -1152.292,359.375 -1572.875,318.875c-477.042,-25.125 -1617.833,-22.125 -1590.167,187.958l-68.583,-520.208c396.167,-446 1152.334,-359.375 1572.875,-318.875Z" style="fill:url(#_Linear13);"/><path d="M992.803,1859.34c391.832,-51.667 969.625,-40.917 1216.333,-27.917l35,3.375c425,41.292 1134.75,110.25 1515,-308.292l-58.125,-440.833c-188.792,168.792 -1225.626,154.708 -1579.876,136.042c-0.333,0 -0.625,-0.042 -0.917,-0.083l-34.041,-3.292c-425.042,-41.292 -1134.792,-110.292 -1515.042,308.292l58.126,440.833c57.333,-51.208 192.832,-85.625 363.542,-108.125Zm2078,29.375c-297.209,39.208 -603.751,9.417 -830.667,-12.625l-34.041,-3.333c-550.75,-28.958 -1426.667,-7.458 -1554.751,131.083c-13.542,14.625 -13.833,26.167 -12.833,33.5c1.499,11.375 -6.5,21.792 -17.875,23.292c-11.333,1.5 -21.75,-6.5 -23.25,-17.875l-68.583,-520.167c-0.791,-5.958 1.042,-11.958 5.042,-16.458c392.708,-442.167 1121.167,-371.375 1556.333,-329.083l33.584,3.25c551.666,29.042 1427.167,7.5 1555.208,-131c13.5,-14.667 13.792,-26.167 12.834,-33.542c-1.5,-11.333 6.499,-21.75 17.832,-23.25c11.334,-1.5 21.792,6.5 23.292,17.833l68.583,520.208c0.791,5.958 -1.083,11.958 -5.083,16.458c-187.917,211.583 -452.833,305.708 -725.625,341.708Z" style="fill-rule:nonzero;"/><path d="M1090.011,1335.631c35.583,-9.25 72.626,-17.292 111.208,-24.167m56.542,428.625c-38.333,2.417 -76.167,5.167 -113.208,8.292m737.792,-21.375c-39.334,-0.5 -80.167,-0.792 -122.084,-0.833m860.375,42.583c-40.5,-1.625 -80.292,-3.875 -119,-6.542m734.834,-43.708c-36.75,9.417 -75.042,17.583 -115,24.5m-56.542,-429.5c39.625,-2.417 78.709,-5.208 117.042,-8.417m-737.875,21c38.126,0.5 77.667,0.792 118.292,0.875m-860.458,-42.875c41.833,1.583 82.916,3.875 122.875,6.542" style="fill:#fff;fill-rule:nonzero;"/><path d="M1092.678,1356.173c-10.209,1.375 -20.084,-5.083 -22.75,-15.333c-2.876,-11.083 3.791,-22.417 14.874,-25.292c35.917,-9.333 73.875,-17.583 112.792,-24.5c12.166,-2.083 22,5.542 24.042,16.792c2,11.292 -5.5,22.042 -16.792,24.042c-37.834,6.75 -74.708,14.75 -109.625,23.792c-0.875,0.25 -1.708,0.417 -2.541,0.5Zm734.833,-44.958c-1.333,0.167 -2.708,0.208 -4.125,0.125c-43,-2.916 -83,-5.042 -122.249,-6.541c-11.458,-0.417 -20.376,-10.084 -19.917,-21.5c0.416,-11.458 10.208,-20.292 21.5,-19.958c39.667,1.542 80.042,3.708 123.459,6.625c11.417,0.75 20.083,10.625 19.291,22.084c-0.666,10 -8.375,17.875 -17.959,19.167Zm737.583,36.292c-0.917,0.125 -1.833,0.167 -2.791,0.167c-40.667,-0.042 -80.292,-0.375 -118.458,-0.875c-11.458,-0.125 -20.626,-9.542 -20.501,-21c0.167,-11.417 9.75,-20.542 21,-20.458c38.042,0.5 77.542,0.791 118.042,0.875c11.417,0 20.708,9.292 20.708,20.75c-0.042,10.5 -7.876,19.209 -18,20.542Zm619.583,-21.875c-0.333,0.041 -0.666,0.083 -1,0.125c-37.417,3.125 -76.958,5.958 -117.5,8.458c-11.417,0.667 -21.249,-8 -21.958,-19.459c-0.708,-11.417 8.375,-20.958 19.417,-21.958c40.25,-2.458 79.458,-5.292 116.583,-8.375c11.375,-0.958 21.416,7.5 22.374,18.917c0.958,11.083 -7,20.875 -17.917,22.292Zm-1924.208,435c-0.459,0.083 -0.958,0.125 -1.417,0.167c-39.25,2.458 -77.208,5.208 -112.75,8.25c-11.417,0.958 -21.458,-7.5 -22.416,-18.917c-1,-11.417 8.292,-21.334 18.917,-22.417c35.874,-3.042 74.082,-5.833 113.624,-8.333c11.458,-0.709 21.292,8 22,19.417c0.709,10.958 -7.25,20.458 -17.958,21.833Zm624.583,-13.083c-0.958,0.125 -1.958,0.209 -3,0.167c-39.25,-0.458 -80,-0.75 -121.833,-0.792c-11.458,0 -20.75,-9.333 -20.708,-20.75c-0.042,-11.458 9.375,-20.625 20.75,-20.75c41.999,0.042 82.916,0.333 122.333,0.833c11.458,0.167 20.626,9.542 20.459,21c-0.125,10.458 -7.917,18.959 -18,20.292Zm738.291,41.75c-1.167,0.167 -2.374,0.208 -3.583,0.167c-38.375,-1.542 -77.5,-3.666 -119.584,-6.541c-11.417,-0.792 -20.041,-10.667 -19.249,-22.125c0.75,-11.417 10.709,-19.958 22.084,-19.25c41.708,2.834 80.417,4.958 118.416,6.459c11.458,0.458 20.334,10.125 19.917,21.542c-0.417,10.25 -8.208,18.458 -18,19.75Zm500.791,-25.75c-10.958,1.458 -21.208,-6 -23.124,-17.042c-1.958,-11.25 5.624,-22 16.916,-23.958c39.209,-6.791 77.375,-14.916 113.376,-24.125c11.292,-2.792 22.416,3.833 25.249,14.917c2.834,11.083 -3.875,22.417 -14.958,25.25c-37.084,9.5 -76.292,17.875 -116.625,24.833c-0.25,0.042 -0.542,0.083 -0.834,0.125Z" style="fill-rule:nonzero;"/><path d="M2140.637,1340.756c-111.084,14.666 -190.5,109.792 -177,212.125c13.5,102.292 114.833,173.625 225.958,158.958c111.083,-14.625 190.5,-109.792 177,-212.083c-13.5,-102.333 -114.875,-173.667 -225.958,-159Zm54.374,412.208c-133.791,17.667 -256.041,-69.667 -272.5,-194.667c-16.5,-125 78.916,-241 212.709,-258.667c133.791,-17.625 256,69.709 272.5,194.709c16.458,124.958 -78.958,241 -212.709,258.625Z" style="fill-rule:nonzero;"/><path d="M1260.428,1760.673c-11.333,1.5 -21.75,-6.5 -23.25,-17.875l-56.542,-428.625c-1.042,-7.917 2.584,-15.708 9.292,-20.083c6.667,-4.333 15.292,-4.458 22.125,-0.292l274.209,167.417c9.791,5.958 12.874,18.708 6.875,28.5c-5.916,9.792 -18.708,12.875 -28.499,6.875l-237.209,-144.792l50.875,385.583c1.5,11.375 -6.499,21.792 -17.874,23.292Z" style="fill-rule:nonzero;"/><path d="M1762.969,1746.715c-11.375,1.5 -21.792,-6.459 -23.291,-17.833l-53.292,-404.083l-197.417,169.833c-8.666,7.5 -21.75,6.458 -29.25,-2.208c-7.458,-8.667 -6.499,-21.792 2.208,-29.25l226.5,-194.833c5.75,-4.917 13.792,-6.333 20.875,-3.625c7.125,2.708 12.208,9.083 13.208,16.667l58.292,442.083c1.5,11.333 -6.5,21.792 -17.833,23.25Z" style="fill-rule:nonzero;"/><path d="M2562.387,1326.965l277.292,190.708" style="fill:none;fill-rule:nonzero;"/><path d="M2842.386,1538.215c-4.916,0.625 -10.083,-0.458 -14.458,-3.5l-277.334,-190.708c-9.458,-6.458 -11.834,-19.375 -5.333,-28.833c6.459,-9.417 19.417,-11.792 28.834,-5.333l277.291,190.708c9.458,6.5 11.875,19.417 5.375,28.833c-3.459,5.042 -8.791,8.083 -14.375,8.833Z" style="fill-rule:nonzero;"/><path d="M2620.636,1768.756l-58.25,-441.792" style="fill:none;fill-rule:nonzero;"/><path d="M2623.344,1789.298c-11.375,1.5 -21.792,-6.5 -23.291,-17.833l-58.25,-441.833c-1.5,-11.333 6.499,-21.75 17.832,-23.25c11.334,-1.5 21.751,6.5 23.25,17.833l58.25,441.833c1.5,11.333 -6.459,21.75 -17.792,23.25Z" style="fill-rule:nonzero;"/><path d="M3124.261,1763.548c-11.375,1.5 -21.792,-6.5 -23.291,-17.875l-51.459,-390.25l-195.917,177.583c-8.458,7.708 -21.625,7.083 -29.292,-1.417c-7.708,-8.5 -7.041,-21.625 1.417,-29.292l225.25,-204.167c5.708,-5.167 13.833,-6.75 21.083,-4.083c7.209,2.667 12.418,9.083 13.418,16.75l56.624,429.458c1.5,11.375 -6.5,21.792 -17.833,23.292Z" style="fill-rule:nonzero;"/><path d="M2185.512,1609.59c-64.667,8.542 -124.25,-37.125 -132.75,-101.833c-1.5,-11.333 6.5,-21.75 17.833,-23.25c11.375,-1.5 21.792,6.5 23.292,17.833c5.541,42 44.208,71.667 86.208,66.125c11.333,-1.458 21.792,6.5 23.291,17.875c1.5,11.333 -6.499,21.75 -17.874,23.25Z" style="fill-rule:nonzero;"/><path d="M2185.512,1609.59c-11.334,1.5 -21.751,-6.5 -23.25,-17.833c-1.5,-11.333 6.5,-21.792 17.833,-23.292c63.125,-8.292 107.708,-66.417 99.374,-129.542c-8.292,-63.125 -66.458,-107.708 -129.541,-99.375c-11.375,1.5 -21.792,-6.5 -23.292,-17.875c-1.499,-11.333 6.5,-21.75 17.875,-23.25c85.75,-11.333 164.792,49.292 176.083,135.083c11.333,85.792 -49.292,164.792 -135.083,176.083Z" style="fill-rule:nonzero;"/><path d="M2046.678,940.673c-2.916,-22.375 12.792,-42.875 35.166,-45.833c22.375,-2.958 42.917,12.792 45.833,35.167c2.958,22.375 -12.75,42.875 -35.125,45.833c-22.375,2.958 -42.917,-12.792 -45.875,-35.167Z" style="fill-rule:nonzero;"/><path d="M2280.719,2715.215c-2.958,-22.375 12.75,-42.875 35.166,-45.833c22.334,-2.958 42.875,12.792 45.833,35.167c2.917,22.375 -12.791,42.875 -35.166,45.833c-22.374,2.958 -42.917,-12.792 -45.833,-35.167Z" style="fill-rule:nonzero;"/><path d="M2513.844,461.215c-2.958,-22.375 -23.5,-38.125 -45.875,-35.167c-22.333,2.958 -38.083,23.458 -35.125,45.833c2.916,22.375 23.459,38.125 45.833,35.167c22.375,-2.958 38.126,-23.458 35.166,-45.833Z" style="fill-rule:nonzero;"/><path d="M3087.677,413.048c-2.958,-22.375 -23.5,-38.125 -45.833,-35.167c-22.374,2.958 -38.125,23.5 -35.166,45.875c2.958,22.333 23.459,38.083 45.833,35.167c22.375,-2.958 38.126,-23.5 35.166,-45.875Z" style="fill-rule:nonzero;"/><path d="M3427.97,899.881c-2.958,-22.375 -23.501,-38.125 -45.875,-35.166c-22.334,2.916 -38.084,23.458 -35.166,45.833c2.958,22.375 23.5,38.125 45.875,35.166c22.374,-2.958 38.125,-23.5 35.166,-45.833Z" style="fill-rule:nonzero;"/><path d="M1552.22,588.006c-2.959,-22.375 12.791,-42.875 35.166,-45.833c22.374,-2.958 42.917,12.792 45.875,35.167c2.916,22.375 -12.834,42.875 -35.167,45.833c-22.374,2.958 -42.916,-12.792 -45.874,-35.167Z" style="fill-rule:nonzero;"/><path d="M985.512,690.256c-2.917,-22.375 12.791,-42.875 35.166,-45.833c22.374,-2.958 42.917,12.792 45.875,35.167c2.916,22.375 -12.834,42.875 -35.166,45.833c-22.375,2.958 -42.917,-12.791 -45.875,-35.167Z" style="fill-rule:nonzero;"/><path d="M1334.262,2036.006c-2.958,-22.375 12.791,-42.917 35.166,-45.875c22.334,-2.917 42.875,12.792 45.833,35.167c2.958,22.375 -12.792,42.917 -35.166,45.875c-22.375,2.917 -42.875,-12.792 -45.833,-35.167Z" style="fill-rule:nonzero;"/><path d="M783.053,1248.631c-2.916,-22.375 12.792,-42.875 35.166,-45.833c22.375,-2.958 42.917,12.792 45.875,35.167c2.916,22.375 -12.792,42.875 -35.166,45.833c-22.375,2.958 -42.917,-12.792 -45.875,-35.167Z" style="fill-rule:nonzero;"/><path d="M1800.261,2407.048c-2.958,-22.375 12.792,-42.875 35.167,-45.833c22.374,-2.958 42.874,12.792 45.833,35.167c2.958,22.375 -12.792,42.875 -35.167,45.833c-22.374,2.958 -42.874,-12.792 -45.833,-35.167Z" style="fill-rule:nonzero;"/><path d="M2745.845,2282.381c-2.959,-22.375 -23.501,-38.125 -45.833,-35.167c-22.375,2.958 -38.126,23.458 -35.167,45.833c2.917,22.375 23.459,38.125 45.833,35.167c22.375,-2.958 38.126,-23.458 35.167,-45.833Z" style="fill-rule:nonzero;"/></g><defs><radialGradient id="_Radial1" cx="0" cy="0" r="1" gradientUnits="userSpaceOnUse" gradientTransform="matrix(-384.987077,-50.754167,-50.754167,384.987077,2932.927971,2399.256372)"><stop offset="0" style="stop-color:#000;stop-opacity:1"/><stop offset="0.29" style="stop-color:#000;stop-opacity:1"/><stop offset="0.57" style="stop-color:#055d4f;stop-opacity:1"/><stop offset="0.68" style="stop-color:#046d5c;stop-opacity:1"/><stop offset="1" style="stop-color:#037664;stop-opacity:1"/></radialGradient><radialGradient id="_Radial2" cx="0" cy="0" r="1" gradientUnits="userSpaceOnUse" gradientTransform="matrix(-358.533757,-47.266667,-47.266667,358.533757,3844.011304,1713.589705)"><stop offset="0" style="stop-color:#000;stop-opacity:1"/><stop offset="0.29" style="stop-color:#000;stop-opacity:1"/><stop offset="0.57" style="stop-color:#055d4f;stop-opacity:1"/><stop offset="0.68" style="stop-color:#046d5c;stop-opacity:1"/><stop offset="1" style="stop-color:#037664;stop-opacity:1"/></radialGradient><radialGradient id="_Radial3" cx="0" cy="0" r="1" gradientUnits="userSpaceOnUse" gradientTransform="matrix(-752.4125,-99.193335,-99.193335,752.4125,3367.136304,2024.131372)"><stop offset="0" style="stop-color:#000;stop-opacity:1"/><stop offset="0.24" style="stop-color:#000206;stop-opacity:1"/><stop offset="0.27" style="stop-color:#363a3c;stop-opacity:1"/><stop offset="0.35" style="stop-color:#a5a9aa;stop-opacity:1"/><stop offset="0.4" style="stop-color:#fff;stop-opacity:1"/><stop offset="0.55" style="stop-color:#fffdfe;stop-opacity:1"/><stop offset="0.64" style="stop-color:#f37d88;stop-opacity:1"/><stop offset="0.69" style="stop-color:#ef4152;stop-opacity:1"/><stop offset="0.72" style="stop-color:#ec1d2a;stop-opacity:1"/><stop offset="1" style="stop-color:#ec1d2a;stop-opacity:1"/></radialGradient><radialGradient id="_Radial4" cx="0" cy="0" r="1" gradientUnits="userSpaceOnUse" gradientTransform="matrix(-323.564583,-42.656669,-42.656669,323.564583,1196.261304,410.923039)"><stop offset="0" style="stop-color:#000;stop-opacity:1"/><stop offset="0.29" style="stop-color:#000;stop-opacity:1"/><stop offset="0.57" style="stop-color:#055d4f;stop-opacity:1"/><stop offset="0.68" style="stop-color:#046d5c;stop-opacity:1"/><stop offset="1" style="stop-color:#037664;stop-opacity:1"/></radialGradient><radialGradient id="_Radial5" cx="0" cy="0" r="1" gradientUnits="userSpaceOnUse" gradientTransform="matrix(-752.4125,-99.193335,-99.193335,752.4125,689.469638,740.798039)"><stop offset="0" style="stop-color:#000;stop-opacity:1"/><stop offset="0.24" style="stop-color:#000206;stop-opacity:1"/><stop offset="0.27" style="stop-color:#363a3c;stop-opacity:1"/><stop offset="0.35" style="stop-color:#a5a9aa;stop-opacity:1"/><stop offset="0.4" style="stop-color:#fff;stop-opacity:1"/><stop offset="0.55" style="stop-color:#fffdfe;stop-opacity:1"/><stop offset="0.64" style="stop-color:#f37d88;stop-opacity:1"/><stop offset="0.69" style="stop-color:#ef4152;stop-opacity:1"/><stop offset="0.72" style="stop-color:#ec1d2a;stop-opacity:1"/><stop offset="1" style="stop-color:#ec1d2a;stop-opacity:1"/></radialGradient><linearGradient id="_Linear6" x1="0" y1="0" x2="1" y2="0" gradientUnits="userSpaceOnUse" gradientTransform="matrix(-356.817904,-47.040833,-47.040833,356.817904,3711.677971,1007.756372)"><stop offset="0" style="stop-color:#fec126;stop-opacity:1"/><stop offset="0.24" style="stop-color:#fec126;stop-opacity:1"/><stop offset="0.29" style="stop-color:#c49927;stop-opacity:1"/><stop offset="0.4" style="stop-color:#493c13;stop-opacity:1"/><stop offset="0.44" style="stop-color:#1d190b;stop-opacity:1"/><stop offset="0.47" style="stop-color:#000;stop-opacity:1"/><stop offset="1" style="stop-color:#000;stop-opacity:1"/></linearGradient><linearGradient id="_Linear7" x1="0" y1="0" x2="1" y2="0" gradientUnits="userSpaceOnUse" gradientTransform="matrix(-1019.795833,-134.443327,-134.443327,1019.795833,4057.636304,666.423039)"><stop offset="0" style="stop-color:#000;stop-opacity:1"/><stop offset="0.14" style="stop-color:#000;stop-opacity:1"/><stop offset="0.18" style="stop-color:#1d190b;stop-opacity:1"/><stop offset="0.26" style="stop-color:#6e581d;stop-opacity:1"/><stop offset="0.35" style="stop-color:#c49927;stop-opacity:1"/><stop offset="0.4" style="stop-color:#fec126;stop-opacity:1"/><stop offset="1" style="stop-color:#fec126;stop-opacity:1"/></linearGradient><linearGradient id="_Linear8" x1="0" y1="0" x2="1" y2="0" gradientUnits="userSpaceOnUse" gradientTransform="matrix(-1019.879167,-134.454582,-134.454582,1019.879167,1292.552971,2252.464705)"><stop offset="0" style="stop-color:#fec126;stop-opacity:1"/><stop offset="0.52" style="stop-color:#fec126;stop-opacity:1"/><stop offset="0.58" style="stop-color:#c49927;stop-opacity:1"/><stop offset="0.68" style="stop-color:#6e581d;stop-opacity:1"/><stop offset="0.78" style="stop-color:#1e1a0b;stop-opacity:1"/><stop offset="0.83" style="stop-color:#000;stop-opacity:1"/><stop offset="1" style="stop-color:#000;stop-opacity:1"/></linearGradient><linearGradient id="_Linear9" x1="0" y1="0" x2="1" y2="0" gradientUnits="userSpaceOnUse" gradientTransform="matrix(-716.9125,-94.513338,-94.513338,716.9125,1341.927971,1999.298039)"><stop offset="0" style="stop-color:#000;stop-opacity:1"/><stop offset="0.26" style="stop-color:#000;stop-opacity:1"/><stop offset="0.29" style="stop-color:#080803;stop-opacity:1"/><stop offset="0.37" style="stop-color:#524314;stop-opacity:1"/><stop offset="0.51" style="stop-color:#c49927;stop-opacity:1"/><stop offset="0.57" style="stop-color:#fec126;stop-opacity:1"/><stop offset="1" style="stop-color:#fec126;stop-opacity:1"/></linearGradient><linearGradient id="_Linear10" x1="0" y1="0" x2="1" y2="0" gradientUnits="userSpaceOnUse" gradientTransform="matrix(-241.15459,1829.229167,1829.229167,241.15459,2302.594638,2569.214705)"><stop offset="0" style="stop-color:#fff;stop-opacity:1"/><stop offset="0.24" style="stop-color:#feffff;stop-opacity:1"/><stop offset="0.28" style="stop-color:#aaaeae;stop-opacity:1"/><stop offset="0.34" style="stop-color:#34383a;stop-opacity:1"/><stop offset="0.36" style="stop-color:#13171b;stop-opacity:1"/><stop offset="0.38" style="stop-color:#000;stop-opacity:1"/><stop offset="0.69" style="stop-color:#000;stop-opacity:1"/><stop offset="0.71" style="stop-color:#15191c;stop-opacity:1"/><stop offset="0.72" style="stop-color:#35393b;stop-opacity:1"/><stop offset="0.76" style="stop-color:#a3a7a8;stop-opacity:1"/><stop offset="0.79" style="stop-color:#fff;stop-opacity:1"/><stop offset="1" style="stop-color:#fff;stop-opacity:1"/></linearGradient><radialGradient id="_Radial11" cx="0" cy="0" r="1" gradientUnits="userSpaceOnUse" gradientTransform="matrix(-1259.525,-166.047917,-166.047917,1259.525,2174.177971,1594.964705)"><stop offset="0" style="stop-color:#ec1d2a;stop-opacity:1"/><stop offset="0.67" style="stop-color:#ea1d2a;stop-opacity:1"/><stop offset="0.76" style="stop-color:#c22028;stop-opacity:1"/><stop offset="0.94" style="stop-color:#30000d;stop-opacity:1"/><stop offset="1" style="stop-color:#000;stop-opacity:1"/></radialGradient><linearGradient id="_Linear12" x1="0" y1="0" x2="1" y2="0" gradientUnits="userSpaceOnUse" gradientTransform="matrix(-250.016667,1896.454167,1896.454167,250.016667,2215.927971,2577.006372)"><stop offset="0" style="stop-color:#ec1d2a;stop-opacity:1"/><stop offset="0.23" style="stop-color:#ec1d2a;stop-opacity:1"/><stop offset="0.28" style="stop-color:#9a1b21;stop-opacity:1"/><stop offset="0.32" style="stop-color:#4e0013;stop-opacity:1"/><stop offset="0.35" style="stop-color:#210009;stop-opacity:1"/><stop offset="0.37" style="stop-color:#000;stop-opacity:1"/><stop offset="0.69" style="stop-color:#000;stop-opacity:1"/><stop offset="0.71" style="stop-color:#15191c;stop-opacity:1"/><stop offset="0.72" style="stop-color:#35393b;stop-opacity:1"/><stop offset="0.76" style="stop-color:#a3a7a8;stop-opacity:1"/><stop offset="0.79" style="stop-color:#fff;stop-opacity:1"/><stop offset="1" style="stop-color:#fff;stop-opacity:1"/></linearGradient><linearGradient id="_Linear13" x1="0" y1="0" x2="1" y2="0" gradientUnits="userSpaceOnUse" gradientTransform="matrix(-3174.6875,-418.529167,-418.529167,3174.6875,3752.511304,1317.298039)"><stop offset="0" style="stop-color:#000;stop-opacity:1"/><stop offset="0.06" style="stop-color:#000;stop-opacity:1"/><stop offset="0.07" style="stop-color:#110f07;stop-opacity:1"/><stop offset="0.08" style="stop-color:#393011;stop-opacity:1"/><stop offset="0.1" style="stop-color:#6c561c;stop-opacity:1"/><stop offset="0.13" style="stop-color:#c49827;stop-opacity:1"/><stop offset="0.15" style="stop-color:#fec126;stop-opacity:1"/><stop offset="0.87" style="stop-color:#ebb529;stop-opacity:1"/><stop offset="0.89" style="stop-color:#be9427;stop-opacity:1"/><stop offset="0.93" style="stop-color:#3b3212;stop-opacity:1"/><stop offset="0.95" style="stop-color:#020303;stop-opacity:1"/><stop offset="1" style="stop-color:#000;stop-opacity:1"/></linearGradient></defs></svg>